<mxfile host="app.diagrams.net" modified="2024-01-19T07:32:00.031Z" agent="Mozilla/5.0 (Windows NT 10.0; Win64; x64) AppleWebKit/537.36 (KHTML, like Gecko) Chrome/120.0.0.0 Safari/537.36" etag="C4o21NY4NCffbQ9k5V0E" version="22.1.21" type="github">
  <diagram name="페이지-1" id="SMcoKKoXxrq3oXYOwZ4Q">
    <mxGraphModel dx="1247" dy="-386" grid="1" gridSize="10" guides="1" tooltips="1" connect="1" arrows="1" fold="1" page="1" pageScale="1" pageWidth="827" pageHeight="1169" math="0" shadow="0">
      <root>
        <mxCell id="0" />
        <mxCell id="1" parent="0" />
        <mxCell id="eBpO1_wVmvebje0pum54-1" value="" style="rounded=0;whiteSpace=wrap;html=1;" vertex="1" parent="1">
          <mxGeometry x="40" y="1206" width="730" height="564" as="geometry" />
        </mxCell>
        <mxCell id="eBpO1_wVmvebje0pum54-2" value="&lt;div&gt;고전압 센싱IC&amp;nbsp;&lt;span style=&quot;background-color: initial;&quot;&gt;소모전류&lt;/span&gt;&lt;/div&gt;" style="rounded=0;whiteSpace=wrap;html=1;" vertex="1" parent="1">
          <mxGeometry x="70" y="1196" width="290" height="30" as="geometry" />
        </mxCell>
        <mxCell id="eBpO1_wVmvebje0pum54-3" value="시작" style="strokeWidth=2;html=1;shape=mxgraph.flowchart.terminator;whiteSpace=wrap;" vertex="1" parent="1">
          <mxGeometry x="294.75" y="1260" width="80" height="50" as="geometry" />
        </mxCell>
        <mxCell id="eBpO1_wVmvebje0pum54-4" value="전압 인가&lt;br&gt;- B+BATT, LATCH SEN, B+LDC, IG3 = 13.8V&lt;br&gt;- 고전압 베터리 셀 전압 = 4.0V" style="rounded=0;whiteSpace=wrap;html=1;align=left;" vertex="1" parent="1">
          <mxGeometry x="182.63" y="1340" width="304.25" height="70" as="geometry" />
        </mxCell>
        <mxCell id="eBpO1_wVmvebje0pum54-5" value="" style="endArrow=classic;html=1;rounded=0;exitX=0.5;exitY=1;exitDx=0;exitDy=0;exitPerimeter=0;entryX=0.5;entryY=0;entryDx=0;entryDy=0;" edge="1" parent="1" source="eBpO1_wVmvebje0pum54-3" target="eBpO1_wVmvebje0pum54-4">
          <mxGeometry width="50" height="50" relative="1" as="geometry">
            <mxPoint x="60.75" y="1360" as="sourcePoint" />
            <mxPoint x="110.75" y="1310" as="targetPoint" />
          </mxGeometry>
        </mxCell>
        <mxCell id="eBpO1_wVmvebje0pum54-6" value="" style="endArrow=classic;html=1;rounded=0;exitX=0.5;exitY=1;exitDx=0;exitDy=0;entryX=0.498;entryY=-0.02;entryDx=0;entryDy=0;entryPerimeter=0;" edge="1" parent="1" source="eBpO1_wVmvebje0pum54-4" target="eBpO1_wVmvebje0pum54-7">
          <mxGeometry width="50" height="50" relative="1" as="geometry">
            <mxPoint x="260" y="1500" as="sourcePoint" />
            <mxPoint x="335" y="1480" as="targetPoint" />
          </mxGeometry>
        </mxCell>
        <mxCell id="eBpO1_wVmvebje0pum54-7" value="각&amp;nbsp;BMIC GND 핀에서 전류 측정&lt;br&gt;-&amp;nbsp;BMIC1 : M1C0 (BMS1-C_1)&lt;br&gt;&lt;div&gt;- BMIC2 : M3C0 (BMS1-C_10)&lt;/div&gt;&lt;div&gt;- BMIC3 : M5C0 (BMS1-D_7)&lt;/div&gt;&lt;div&gt;- BMIC4 : M7C0 (BMS2-E_6)&lt;/div&gt;&lt;div&gt;- BMIC5 : M9C0 (BMS2-F_15)&amp;nbsp;&lt;/div&gt;" style="rounded=0;whiteSpace=wrap;html=1;align=left;" vertex="1" parent="1">
          <mxGeometry x="182.63" y="1440" width="304.25" height="110" as="geometry" />
        </mxCell>
        <mxCell id="eBpO1_wVmvebje0pum54-8" value="전류 &amp;lt;= 10mA" style="rhombus;whiteSpace=wrap;html=1;" vertex="1" parent="1">
          <mxGeometry x="231.06" y="1580" width="207.37" height="50" as="geometry" />
        </mxCell>
        <mxCell id="eBpO1_wVmvebje0pum54-10" value="" style="endArrow=classic;html=1;rounded=0;exitX=0.5;exitY=1;exitDx=0;exitDy=0;entryX=0.5;entryY=0;entryDx=0;entryDy=0;" edge="1" parent="1" source="eBpO1_wVmvebje0pum54-7" target="eBpO1_wVmvebje0pum54-8">
          <mxGeometry width="50" height="50" relative="1" as="geometry">
            <mxPoint x="130" y="1520" as="sourcePoint" />
            <mxPoint x="180" y="1470" as="targetPoint" />
          </mxGeometry>
        </mxCell>
        <mxCell id="eBpO1_wVmvebje0pum54-11" value="" style="endArrow=classic;html=1;rounded=0;exitX=0.983;exitY=0.498;exitDx=0;exitDy=0;exitPerimeter=0;entryX=1;entryY=0.5;entryDx=0;entryDy=0;" edge="1" parent="1" source="eBpO1_wVmvebje0pum54-8" target="eBpO1_wVmvebje0pum54-7">
          <mxGeometry width="50" height="50" relative="1" as="geometry">
            <mxPoint x="490" y="1580" as="sourcePoint" />
            <mxPoint x="540" y="1530" as="targetPoint" />
            <Array as="points">
              <mxPoint x="610" y="1605" />
              <mxPoint x="610" y="1495" />
            </Array>
          </mxGeometry>
        </mxCell>
        <mxCell id="eBpO1_wVmvebje0pum54-12" value="no" style="text;html=1;strokeColor=none;fillColor=none;align=center;verticalAlign=middle;whiteSpace=wrap;rounded=0;" vertex="1" parent="1">
          <mxGeometry x="420" y="1580" width="60" height="30" as="geometry" />
        </mxCell>
        <mxCell id="eBpO1_wVmvebje0pum54-13" value="종료" style="strokeWidth=2;html=1;shape=mxgraph.flowchart.terminator;whiteSpace=wrap;" vertex="1" parent="1">
          <mxGeometry x="294.76" y="1686" width="80" height="50" as="geometry" />
        </mxCell>
        <mxCell id="eBpO1_wVmvebje0pum54-14" value="" style="endArrow=classic;html=1;rounded=0;exitX=0.5;exitY=1;exitDx=0;exitDy=0;entryX=0.5;entryY=0;entryDx=0;entryDy=0;entryPerimeter=0;" edge="1" parent="1" source="eBpO1_wVmvebje0pum54-8" target="eBpO1_wVmvebje0pum54-13">
          <mxGeometry width="50" height="50" relative="1" as="geometry">
            <mxPoint x="210" y="1660" as="sourcePoint" />
            <mxPoint x="260" y="1610" as="targetPoint" />
          </mxGeometry>
        </mxCell>
      </root>
    </mxGraphModel>
  </diagram>
</mxfile>
